<svg width="1024" height="1024" viewBox="0 0 1024 1024" fill="none" xmlns="http://www.w3.org/2000/svg">
  <rect width="1024" height="1024" rx="220" fill="#0F172A"/>
  <rect x="188" y="172" width="420" height="520" rx="46" fill="#ECFDF5"/>
  <rect x="246" y="238" width="92" height="390" rx="16" fill="#10B981"/>
  <rect x="378" y="206" width="92" height="422" rx="16" fill="#065F46"/>
  <rect x="510" y="298" width="40" height="330" rx="14" fill="#34D399"/>
  <rect x="468" y="728" width="340" height="176" rx="40" fill="#F8FAFC"/>
  <rect x="420" y="636" width="360" height="152" rx="36" fill="#D1FAE5"/>
  <rect x="474" y="682" width="236" height="22" rx="11" fill="#0F172A" fill-opacity="0.14"/>
  <rect x="474" y="722" width="188" height="22" rx="11" fill="#10B981" fill-opacity="0.92"/>
  <rect x="520" y="774" width="200" height="24" rx="12" fill="#065F46" fill-opacity="0.92"/>
  <path d="M775 214L790 255L832 270L790 285L775 326L760 285L718 270L760 255L775 214Z" fill="#34D399"/>
  <path d="M188 692H610" stroke="#10B981" stroke-width="26" stroke-linecap="round"/>
</svg>
